# xmcd
#
# Track frame offsets:
#	150
#	15034
#	31837
#	47821
#	62223
#
# Disc length: 1011 seconds
#
# Revision: 1
# Processed by: cddbd v1.5.2PL0 Copyright (c) Steve Scherf et al.
# Submitted via: audiograbber 1.83.01
#
DISCID=3103f105
DTITLE=Cole Swindell - Down Home Sessions II
DYEAR=2015
DGENRE=Country
TTITLE0=Dangerous After Dark
TTITLE1=My First Radio
TTITLE2=Should've Ran After You
TTITLE3=Shuttin' It Down
TTITLE4=Blue Lights
EXTD=
EXTT0=
EXTT1=
EXTT2=
EXTT3=
EXTT4=
PLAYORDER=
